<svg width="48" height="48" viewBox="0 0 48 48" fill="none" xmlns="http://www.w3.org/2000/svg"><path d="M44 0H4C1.79086 0 0 1.79086 0 4V44C0 46.2091 1.79086 48 4 48H44C46.2091 48 48 46.2091 48 44V4C48 1.79086 46.2091 0 44 0Z" fill="#0085A3" fill-opacity="0.08"/><g transform="translate(12, 12)"><svg xmlns="http://www.w3.org/2000/svg" width="24" height="24" viewBox="0 0 24 24"><rect width="16" height="20" x="4" y="2" rx="2" stroke="#0085A3" stroke-width="1.5" stroke-linecap="round" stroke-linejoin="round" fill="none"/><line x1="8" x2="16" y1="6" y2="6" stroke="#0085A3" stroke-width="1.5" stroke-linecap="round" stroke-linejoin="round" fill="none"/><line x1="16" x2="16" y1="14" y2="18" stroke="#0085A3" stroke-width="1.5" stroke-linecap="round" stroke-linejoin="round" fill="none"/><path d="M16 10h.01" stroke="#0085A3" stroke-width="1.5" stroke-linecap="round" stroke-linejoin="round" fill="none"/><path d="M12 10h.01" stroke="#0085A3" stroke-width="1.5" stroke-linecap="round" stroke-linejoin="round" fill="none"/><path d="M8 10h.01" stroke="#0085A3" stroke-width="1.5" stroke-linecap="round" stroke-linejoin="round" fill="none"/><path d="M12 14h.01" stroke="#0085A3" stroke-width="1.5" stroke-linecap="round" stroke-linejoin="round" fill="none"/><path d="M8 14h.01" stroke="#0085A3" stroke-width="1.5" stroke-linecap="round" stroke-linejoin="round" fill="none"/><path d="M12 18h.01" stroke="#0085A3" stroke-width="1.5" stroke-linecap="round" stroke-linejoin="round" fill="none"/><path d="M8 18h.01" stroke="#0085A3" stroke-width="1.5" stroke-linecap="round" stroke-linejoin="round" fill="none"/></svg></g><path d="M38.7 11L36 7.5L38.7 4L39.3413 4.83125L37.2713 7.51458L39.33 10.1833L38.7 11ZM42.3 11L41.6588 10.1688L43.7288 7.48542L41.67 4.81667L42.3 4L45 7.5L42.3 11Z" stroke="#0085A3" stroke-width="1.5" stroke-linecap="round" stroke-linejoin="round"/></svg>