<svg width="48" height="48" viewBox="0 0 48 48" fill="none" xmlns="http://www.w3.org/2000/svg"><path d="M44 0H4C1.79086 0 0 1.79086 0 4V44C0 46.2091 1.79086 48 4 48H44C46.2091 48 48 46.2091 48 44V4C48 1.79086 46.2091 0 44 0Z" fill="#0085A3" fill-opacity="0.08"/><g transform="translate(12, 12)"><svg xmlns="http://www.w3.org/2000/svg" width="24" height="24" viewBox="0 0 24 24"><path d="m18 16 4-4-4-4" stroke="#0085A3" stroke-width="1.5" stroke-linecap="round" stroke-linejoin="round" fill="none"/><path d="m6 8-4 4 4 4" stroke="#0085A3" stroke-width="1.5" stroke-linecap="round" stroke-linejoin="round" fill="none"/><path d="m14.5 4-5 16" stroke="#0085A3" stroke-width="1.5" stroke-linecap="round" stroke-linejoin="round" fill="none"/></svg></g><path d="M38.7 11L36 7.5L38.7 4L39.3413 4.83125L37.2713 7.51458L39.33 10.1833L38.7 11ZM42.3 11L41.6588 10.1688L43.7288 7.48542L41.67 4.81667L42.3 4L45 7.5L42.3 11Z" stroke="#0085A3" stroke-width="1.5" stroke-linecap="round" stroke-linejoin="round"/></svg>