<svg width="30" height="30" viewBox="0 0 30 30" fill="none" xmlns="http://www.w3.org/2000/svg">
<path fill-rule="evenodd" clip-rule="evenodd" d="M13.8221 4.70075C8.00932 8.50295 2.51318 12.6345 2.51318 19.3194C2.51318 21.5007 3.36256 23.5514 4.90434 25.0957C6.44869 26.6387 8.49801 27.4869 10.6806 27.4869C17.3656 27.4869 21.4971 21.9907 25.2993 16.1779H20.4515L21.5272 14.2969C23.8555 10.232 25.4251 6.16955 26.2631 3.73813C23.8305 4.57635 19.7692 6.14572 15.7044 8.47415L13.8233 9.54971L13.8221 4.70075ZM6.28282 18.6911C6.28282 21.463 8.53707 23.7172 11.309 23.7172C14.0809 23.7172 17.5414 20.2567 17.5414 17.4848C17.5414 14.7129 15.2871 12.4587 12.5152 12.4587C9.74335 12.4587 6.28282 15.9192 6.28282 18.6911Z" fill="#271E35" fill-opacity="0.6"/>
<path fill-rule="evenodd" clip-rule="evenodd" d="M3.12759 26.8724C5.14676 28.8892 7.82833 30 10.6806 30C19.3772 30 24.2225 22.4883 28.4973 15.8626L29.9159 13.6649H24.7364C27.8539 7.70514 29.3429 2.37985 29.4107 2.13482L30 0L27.8652 0.589269C27.6189 0.655917 22.2949 2.14613 16.3351 5.26242V0.0829311L14.1374 1.50152L14.1318 1.50514C7.50731 5.78036 0 10.6253 0 19.3194C0 22.1717 1.11084 24.8544 3.12759 26.8724ZM2.51314 19.3194C2.51314 12.6345 8.00928 8.50295 13.8221 4.70074L13.8233 9.5497L15.7043 8.47415C19.7692 6.14572 23.8305 4.57634 26.2631 3.73812C25.425 6.16954 23.8555 10.232 21.5272 14.2969L20.4515 16.1779H25.2993C21.497 21.9907 17.3655 27.4869 10.6806 27.4869C8.49797 27.4869 6.44865 26.6387 4.9043 25.0957C3.36252 23.5513 2.51314 21.5007 2.51314 19.3194Z" fill="#271E35" fill-opacity="0.6"/>
</svg>
