<svg width="29" height="29" viewBox="0 0 29 29" fill="none" xmlns="http://www.w3.org/2000/svg">
<path d="M25.245 18.2129C25.2245 16.8427 23.5476 16.1372 22.5558 17.0984C22.4127 17.2415 22.0855 17.7732 22.0855 17.9675V20.9735C20.6131 19.2967 18.0263 19.0308 16.2881 20.4828C15.6541 21.0144 15.1224 22.0778 14.1409 21.4439C11.9323 19.2967 9.84645 16.9961 7.54588 14.9614C6.22689 14.1025 4.4989 14.0412 3.139 14.8489V9.19461C3.139 8.19259 4.43755 6.94516 5.4498 6.91449C8.31274 6.72022 6.81992 7.12921 9.66241 6.90427C11.554 6.75089 11.6767 4.18448 9.88735 3.74481H5.27598C2.52552 3.96976 0.255619 6.301 0 9.02079V23.724C0.0817982 24.0717 0.112472 24.4193 0.214719 24.7669C0.85888 27.1289 3.01631 28.8364 5.4498 29H19.8054C22.7092 28.8159 25.0814 26.4642 25.2552 23.5502C25.429 20.6873 25.112 21.0758 25.2552 18.1924L25.245 18.2129ZM21.4925 24.8896C21.0324 25.4418 20.3575 25.7792 19.652 25.861H5.59295C2.15743 25.4009 3.37417 21.6382 3.14923 19.2149L3.20035 19.0717C3.74227 18.6627 4.47845 17.4971 5.16351 17.4358C5.42935 17.4153 5.67475 17.538 5.88947 17.6709L12.0346 23.816C13.6092 25.1248 15.8484 25.1453 17.4128 23.816C18.0672 23.2639 18.6091 22.2005 19.6111 22.9572C19.969 23.223 21.1653 24.4193 21.4413 24.7772C21.472 24.8181 21.5231 24.8385 21.5129 24.8999L21.4925 24.8896Z" fill="url(#paint0_linear_647_2773)"/>
<path d="M23.3533 9.53204L22.0956 12.4461C21.9934 12.6813 21.6662 12.6813 21.564 12.4461L20.2654 9.48092C19.9484 8.76518 19.3758 8.1926 18.6601 7.87563L15.6949 6.57708C15.4598 6.47484 15.4598 6.14764 15.6949 6.0454L18.6601 4.74685C19.3758 4.42988 19.9484 3.85729 20.2654 3.14156L21.564 0.176377C21.6662 -0.0587924 21.9934 -0.0587924 22.0956 0.176377L23.3942 3.14156C23.7112 3.85729 24.2837 4.42988 24.9995 4.74685L27.9749 6.0454C28.2101 6.14764 28.2101 6.47484 27.9749 6.57708L24.9483 7.91653C24.2326 8.23349 23.66 8.81631 23.3533 9.53204Z" fill="url(#paint1_linear_647_2773)"/>
<path d="M18.8442 13.7753L17.014 14.5831C16.5846 14.7773 16.2369 15.125 16.0426 15.5544L15.286 17.3233C15.2247 17.4664 15.0304 17.4664 14.969 17.3233L14.1817 15.5237C13.9875 15.0841 13.6501 14.7467 13.2104 14.5524L11.4108 13.7651C11.2677 13.7037 11.2677 13.5095 11.4108 13.4481L13.2104 12.6608C13.6501 12.4665 13.9875 12.1291 14.1817 11.6895L14.969 9.88989C15.0304 9.74675 15.2247 9.74675 15.286 9.88989L16.0733 11.6895C16.2676 12.1291 16.605 12.4665 17.0447 12.6608L18.8442 13.4481C18.9874 13.5095 18.9874 13.7037 18.8442 13.7651V13.7753Z" fill="url(#paint2_linear_647_2773)"/>
<defs>
<linearGradient id="paint0_linear_647_2773" x1="2.37215" y1="27.9775" x2="18.7216" y2="9.49113" gradientUnits="userSpaceOnUse">
<stop stop-color="#00DEBC"/>
<stop offset="0.3" stop-color="#00B8FF"/>
<stop offset="0.7" stop-color="#D25CF1"/>
<stop offset="1" stop-color="#FA42B1"/>
</linearGradient>
<linearGradient id="paint1_linear_647_2773" x1="2.54588" y1="28.1309" x2="18.8953" y2="9.64451" gradientUnits="userSpaceOnUse">
<stop stop-color="#00DEBC"/>
<stop offset="0.3" stop-color="#00B8FF"/>
<stop offset="0.7" stop-color="#D25CF1"/>
<stop offset="1" stop-color="#FA42B1"/>
</linearGradient>
<linearGradient id="paint2_linear_647_2773" x1="2.4028" y1="27.998" x2="18.7522" y2="9.51157" gradientUnits="userSpaceOnUse">
<stop stop-color="#00DEBC"/>
<stop offset="0.3" stop-color="#00B8FF"/>
<stop offset="0.7" stop-color="#D25CF1"/>
<stop offset="1" stop-color="#FA42B1"/>
</linearGradient>
</defs>
</svg>
