<svg width="28" height="28" viewBox="0 0 28 28" fill="none" xmlns="http://www.w3.org/2000/svg">
<path d="M23.5125 19.4541L22.1679 22.5357C22.0796 22.732 21.8637 22.8105 21.6674 22.732L19.6261 21.8389C19.3317 21.7113 18.6545 22.6437 18.4582 22.84C18.1932 23.1049 17.3099 23.7429 17.2118 23.998C17.1725 24.106 17.1725 24.2041 17.2118 24.3121L18.0558 26.4516C18.0754 26.5104 18.0656 26.5693 18.0362 26.6184C18.0166 26.6478 17.9871 26.6675 17.9577 26.6871L14.6503 27.9728C14.454 28.0513 14.2381 27.9531 14.1596 27.7667C13.9241 27.2072 13.5609 26.0982 13.4334 25.8922C13.3548 25.7744 13.2665 25.637 13.1389 25.5683C12.9623 25.48 11.5981 25.5585 11.2546 25.5487C10.9209 25.5487 10.0278 25.3229 9.85119 25.7351L9.00717 27.6685C8.91885 27.8648 8.70293 27.9433 8.50665 27.8648L5.47408 26.5399C5.2778 26.4516 5.19929 26.2356 5.2778 26.0394L6.17089 23.998C6.29847 23.7036 5.33668 23.0068 5.13059 22.8007C4.85579 22.5259 4.45341 21.8978 4.22768 21.7211C4.08047 21.6034 3.88419 21.515 3.68791 21.5837L1.54842 22.4278C1.49935 22.4474 1.43065 22.4376 1.38158 22.4081C1.35214 22.3885 1.33251 22.3591 1.31288 22.3296L0.0272316 19.0222C-0.0512816 18.826 0.046859 18.6101 0.233328 18.5315C0.792734 18.296 1.90173 17.9329 2.10783 17.8053C2.2256 17.7268 2.363 17.6385 2.4317 17.5109C2.52984 17.3048 2.4317 16.2645 2.4317 15.9406C2.44151 15.5088 2.73594 14.4292 2.25504 14.2231L0.321656 13.3791C0.125373 13.2908 0.0468599 13.0749 0.125373 12.8786L1.45028 9.84602C1.53861 9.64974 1.75452 9.57123 1.9508 9.64974L3.99215 10.5428C4.05103 10.5723 4.3062 10.4741 4.3749 10.4152C4.67914 10.1797 5.09133 9.60067 5.4152 9.28662C5.77832 8.93331 6.47512 8.61926 6.3868 8.03041C6.29847 7.44156 6.37698 7.97152 6.36717 7.9519L5.57222 5.93018C5.5526 5.8713 5.56241 5.81241 5.59185 5.76334C5.61148 5.7339 5.64092 5.71427 5.67036 5.70445L8.97773 4.4188C9.17401 4.34029 9.38992 4.43843 9.46844 4.6249C9.70398 5.18431 10.0671 6.2933 10.1947 6.4994C10.2732 6.61717 10.3615 6.75457 10.4891 6.82327C10.5382 6.8429 10.6363 6.86252 10.7639 6.86252C10.9896 6.86252 11.1565 7.07844 11.1172 7.30416L10.6854 9.81658C10.656 9.96379 10.548 10.0816 10.4008 10.1208C7.13267 10.906 4.73802 14.3409 5.8372 17.9623C7.23081 22.5357 13.031 23.949 16.3187 20.4747C17.4081 19.3167 17.9577 17.9034 18.0166 16.4902L20.7743 15.8228C21.0099 15.764 21.2454 15.9406 21.2454 16.186C21.2454 16.6374 21.1178 17.3146 21.1473 17.6973C21.1473 17.7857 21.2552 18.0408 21.3141 18.0703L23.3064 18.9339C23.5027 19.0222 23.5812 19.2382 23.5027 19.4344L23.5125 19.4541Z" fill="url(#paint0_linear_647_2790)"/>
<path d="M22.4525 9.14924L21.2453 11.9463C21.1472 12.172 20.8331 12.172 20.735 11.9463L19.4886 9.10017C19.1843 8.41318 18.6348 7.86358 17.9478 7.55935L15.1017 6.31295C14.8759 6.21481 14.8759 5.90075 15.1017 5.80261L17.9478 4.55622C18.6348 4.25198 19.1843 3.70239 19.4886 3.0154L20.735 0.169294C20.8331 -0.0564313 21.1472 -0.0564313 21.2453 0.169294L22.4917 3.0154C22.796 3.70239 23.3455 4.25198 24.0325 4.55622L26.8885 5.80261C27.1142 5.90075 27.1142 6.21481 26.8885 6.31295L23.9835 7.5986C23.2965 7.90284 22.7469 8.46225 22.4525 9.14924Z" fill="url(#paint1_linear_647_2790)"/>
<path d="M18.1146 13.2123L16.3579 13.9876C15.9457 14.1741 15.612 14.5078 15.4256 14.92L14.6993 16.6178C14.6404 16.7552 14.454 16.7552 14.3951 16.6178L13.6394 14.8905C13.4529 14.4685 13.1291 14.1446 12.707 13.9582L10.9798 13.2025C10.8424 13.1436 10.8424 12.9571 10.9798 12.8983L12.707 12.1426C13.1291 11.9561 13.4529 11.6322 13.6394 11.2102L14.3951 9.48293C14.454 9.34553 14.6404 9.34553 14.6993 9.48293L15.455 11.2102C15.6415 11.6322 15.9653 11.9561 16.3873 12.1426L18.1146 12.8983C18.252 12.9571 18.252 13.1436 18.1146 13.2025V13.2123Z" fill="url(#paint2_linear_647_2790)"/>
<defs>
<linearGradient id="paint0_linear_647_2790" x1="2.2256" y1="23.733" x2="21.8146" y2="8.34446" gradientUnits="userSpaceOnUse">
<stop offset="0.3" stop-color="#00B8FF"/>
<stop offset="0.7" stop-color="#D25CF1"/>
<stop offset="1" stop-color="#FA42B1"/>
</linearGradient>
<linearGradient id="paint1_linear_647_2790" x1="0.792646" y1="21.9371" x2="20.578" y2="6.39146" gradientUnits="userSpaceOnUse">
<stop stop-color="#00DEBC"/>
<stop offset="0.3" stop-color="#00B8FF"/>
<stop offset="0.7" stop-color="#D25CF1"/>
<stop offset="1" stop-color="#FA42B1"/>
</linearGradient>
<linearGradient id="paint2_linear_647_2790" x1="1.73484" y1="23.1246" x2="21.5201" y2="7.57899" gradientUnits="userSpaceOnUse">
<stop stop-color="#00DEBC"/>
<stop offset="0.3" stop-color="#00B8FF"/>
<stop offset="0.7" stop-color="#D25CF1"/>
<stop offset="1" stop-color="#FA42B1"/>
</linearGradient>
</defs>
</svg>
